<mxfile host="app.diagrams.net" modified="2022-11-11T02:04:59.031Z" agent="5.0 (Macintosh; Intel Mac OS X 10_15_7) AppleWebKit/537.36 (KHTML, like Gecko) Chrome/107.0.0.0 Safari/537.36 Edg/107.0.1418.35" etag="ChtwtitjHo87pa0LIse1" version="20.5.1" type="github">
  <diagram id="Fy_xnkCLufcFKRbf-qhm" name="第 1 页">
    <mxGraphModel dx="803" dy="1053" grid="1" gridSize="10" guides="1" tooltips="1" connect="1" arrows="1" fold="1" page="1" pageScale="1" pageWidth="827" pageHeight="1169" math="0" shadow="0">
      <root>
        <mxCell id="0" />
        <mxCell id="1" parent="0" />
        <mxCell id="dQ3IUtjXQcdoY3WB8gmI-1" value="Assemble Ordered Products" style="swimlane;html=1;childLayout=stackLayout;resizeParent=1;resizeParentMax=0;horizontal=0;startSize=20;horizontalStack=0;" parent="1" vertex="1">
          <mxGeometry x="100" y="120" width="2140" height="610" as="geometry" />
        </mxCell>
        <mxCell id="dQ3IUtjXQcdoY3WB8gmI-2" value="Assemble Department" style="swimlane;html=1;startSize=20;horizontal=0;" parent="dQ3IUtjXQcdoY3WB8gmI-1" vertex="1">
          <mxGeometry x="20" width="2120" height="330" as="geometry" />
        </mxCell>
        <mxCell id="dQ3IUtjXQcdoY3WB8gmI-56" value="Customer order requirements are checked for parts availability " style="points=[[0.25,0,0],[0.5,0,0],[0.75,0,0],[1,0.25,0],[1,0.5,0],[1,0.75,0],[0.75,1,0],[0.5,1,0],[0.25,1,0],[0,0.75,0],[0,0.5,0],[0,0.25,0]];shape=mxgraph.bpmn.task;whiteSpace=wrap;rectStyle=rounded;size=10;taskMarker=abstract;" parent="dQ3IUtjXQcdoY3WB8gmI-2" vertex="1">
          <mxGeometry x="140" y="125" width="120" height="80" as="geometry" />
        </mxCell>
        <mxCell id="dQ3IUtjXQcdoY3WB8gmI-59" style="edgeStyle=orthogonalEdgeStyle;rounded=0;orthogonalLoop=1;jettySize=auto;html=1;" parent="dQ3IUtjXQcdoY3WB8gmI-2" source="dQ3IUtjXQcdoY3WB8gmI-58" target="dQ3IUtjXQcdoY3WB8gmI-56" edge="1">
          <mxGeometry relative="1" as="geometry" />
        </mxCell>
        <mxCell id="dQ3IUtjXQcdoY3WB8gmI-58" value="" style="points=[[0.145,0.145,0],[0.5,0,0],[0.855,0.145,0],[1,0.5,0],[0.855,0.855,0],[0.5,1,0],[0.145,0.855,0],[0,0.5,0]];shape=mxgraph.bpmn.event;html=1;verticalLabelPosition=bottom;labelBackgroundColor=#ffffff;verticalAlign=top;align=center;perimeter=ellipsePerimeter;outlineConnect=0;aspect=fixed;outline=standard;symbol=general;" parent="dQ3IUtjXQcdoY3WB8gmI-2" vertex="1">
          <mxGeometry x="40" y="140" width="50" height="50" as="geometry" />
        </mxCell>
        <mxCell id="dQ3IUtjXQcdoY3WB8gmI-71" value="" style="edgeStyle=orthogonalEdgeStyle;rounded=0;orthogonalLoop=1;jettySize=auto;html=1;" parent="dQ3IUtjXQcdoY3WB8gmI-2" source="dQ3IUtjXQcdoY3WB8gmI-69" target="dQ3IUtjXQcdoY3WB8gmI-70" edge="1">
          <mxGeometry relative="1" as="geometry" />
        </mxCell>
        <mxCell id="dQ3IUtjXQcdoY3WB8gmI-69" value="A list is produced" style="points=[[0.25,0,0],[0.5,0,0],[0.75,0,0],[1,0.25,0],[1,0.5,0],[1,0.75,0],[0.75,1,0],[0.5,1,0],[0.25,1,0],[0,0.75,0],[0,0.5,0],[0,0.25,0]];shape=mxgraph.bpmn.task;whiteSpace=wrap;rectStyle=rounded;size=10;taskMarker=abstract;" parent="dQ3IUtjXQcdoY3WB8gmI-2" vertex="1">
          <mxGeometry x="510" y="210" width="120" height="80" as="geometry" />
        </mxCell>
        <mxCell id="dQ3IUtjXQcdoY3WB8gmI-70" value="Parts ordered from the supplier" style="points=[[0.25,0,0],[0.5,0,0],[0.75,0,0],[1,0.25,0],[1,0.5,0],[1,0.75,0],[0.75,1,0],[0.5,1,0],[0.25,1,0],[0,0.75,0],[0,0.5,0],[0,0.25,0]];shape=mxgraph.bpmn.task;whiteSpace=wrap;rectStyle=rounded;size=10;taskMarker=abstract;" parent="dQ3IUtjXQcdoY3WB8gmI-2" vertex="1">
          <mxGeometry x="750" y="210" width="120" height="80" as="geometry" />
        </mxCell>
        <mxCell id="dQ3IUtjXQcdoY3WB8gmI-82" style="edgeStyle=orthogonalEdgeStyle;rounded=0;orthogonalLoop=1;jettySize=auto;html=1;" parent="dQ3IUtjXQcdoY3WB8gmI-2" source="dQ3IUtjXQcdoY3WB8gmI-76" target="dQ3IUtjXQcdoY3WB8gmI-78" edge="1">
          <mxGeometry relative="1" as="geometry" />
        </mxCell>
        <mxCell id="dQ3IUtjXQcdoY3WB8gmI-76" value="Work order is produced" style="points=[[0.25,0,0],[0.5,0,0],[0.75,0,0],[1,0.25,0],[1,0.5,0],[1,0.75,0],[0.75,1,0],[0.5,1,0],[0.25,1,0],[0,0.75,0],[0,0.5,0],[0,0.25,0]];shape=mxgraph.bpmn.task;whiteSpace=wrap;rectStyle=rounded;size=10;taskMarker=abstract;" parent="dQ3IUtjXQcdoY3WB8gmI-2" vertex="1">
          <mxGeometry x="890" y="110" width="120" height="80" as="geometry" />
        </mxCell>
        <mxCell id="dQ3IUtjXQcdoY3WB8gmI-78" value="Product delivery schedule is produced and sent to the customer" style="points=[[0.25,0,0],[0.5,0,0],[0.75,0,0],[1,0.25,0],[1,0.5,0],[1,0.75,0],[0.75,1,0],[0.5,1,0],[0.25,1,0],[0,0.75,0],[0,0.5,0],[0,0.25,0]];shape=mxgraph.bpmn.task;whiteSpace=wrap;rectStyle=rounded;size=10;taskMarker=abstract;" parent="dQ3IUtjXQcdoY3WB8gmI-2" vertex="1">
          <mxGeometry x="1090" y="110" width="120" height="80" as="geometry" />
        </mxCell>
        <mxCell id="dQ3IUtjXQcdoY3WB8gmI-92" value="The products are assembled" style="points=[[0.25,0,0],[0.5,0,0],[0.75,0,0],[1,0.25,0],[1,0.5,0],[1,0.75,0],[0.75,1,0],[0.5,1,0],[0.25,1,0],[0,0.75,0],[0,0.5,0],[0,0.25,0]];shape=mxgraph.bpmn.task;whiteSpace=wrap;rectStyle=rounded;size=10;taskMarker=abstract;" parent="dQ3IUtjXQcdoY3WB8gmI-2" vertex="1">
          <mxGeometry x="1544" y="100" width="120" height="80" as="geometry" />
        </mxCell>
        <mxCell id="dQ3IUtjXQcdoY3WB8gmI-96" value="The work order is completed" style="points=[[0.25,0,0],[0.5,0,0],[0.75,0,0],[1,0.25,0],[1,0.5,0],[1,0.75,0],[0.75,1,0],[0.5,1,0],[0.25,1,0],[0,0.75,0],[0,0.5,0],[0,0.25,0]];shape=mxgraph.bpmn.task;whiteSpace=wrap;rectStyle=rounded;size=10;taskMarker=abstract;" parent="dQ3IUtjXQcdoY3WB8gmI-2" vertex="1">
          <mxGeometry x="1870" y="100" width="120" height="80" as="geometry" />
        </mxCell>
        <mxCell id="dQ3IUtjXQcdoY3WB8gmI-98" value="" style="points=[[0.145,0.145,0],[0.5,0,0],[0.855,0.145,0],[1,0.5,0],[0.855,0.855,0],[0.5,1,0],[0.145,0.855,0],[0,0.5,0]];shape=mxgraph.bpmn.event;html=1;verticalLabelPosition=bottom;labelBackgroundColor=#ffffff;verticalAlign=top;align=center;perimeter=ellipsePerimeter;outlineConnect=0;aspect=fixed;outline=end;symbol=terminate2;" parent="dQ3IUtjXQcdoY3WB8gmI-2" vertex="1">
          <mxGeometry x="2050" y="115" width="50" height="50" as="geometry" />
        </mxCell>
        <mxCell id="dQ3IUtjXQcdoY3WB8gmI-99" style="edgeStyle=orthogonalEdgeStyle;rounded=0;orthogonalLoop=1;jettySize=auto;html=1;" parent="dQ3IUtjXQcdoY3WB8gmI-2" source="dQ3IUtjXQcdoY3WB8gmI-96" target="dQ3IUtjXQcdoY3WB8gmI-98" edge="1">
          <mxGeometry relative="1" as="geometry" />
        </mxCell>
        <mxCell id="GKFgGf4gHCo7Agr6WiY--1" value="Missing parts list" style="shape=mxgraph.bpmn.data;labelPosition=center;verticalLabelPosition=bottom;align=center;verticalAlign=top;whiteSpace=wrap;size=15;html=1;" parent="dQ3IUtjXQcdoY3WB8gmI-2" vertex="1">
          <mxGeometry x="660" y="110" width="40" height="60" as="geometry" />
        </mxCell>
        <mxCell id="GKFgGf4gHCo7Agr6WiY--2" value="" style="edgeStyle=elbowEdgeStyle;fontSize=12;html=1;endFill=0;startFill=0;endSize=6;startSize=6;dashed=1;dashPattern=1 4;endArrow=openThin;startArrow=none;rounded=0;exitX=0.5;exitY=0;exitDx=0;exitDy=0;exitPerimeter=0;entryX=0;entryY=0.5;entryDx=0;entryDy=0;entryPerimeter=0;" parent="dQ3IUtjXQcdoY3WB8gmI-2" source="dQ3IUtjXQcdoY3WB8gmI-69" target="GKFgGf4gHCo7Agr6WiY--1" edge="1">
          <mxGeometry width="160" relative="1" as="geometry">
            <mxPoint x="570" y="150" as="sourcePoint" />
            <mxPoint x="730" y="150" as="targetPoint" />
          </mxGeometry>
        </mxCell>
        <mxCell id="GKFgGf4gHCo7Agr6WiY--3" value="Work order" style="shape=mxgraph.bpmn.data;labelPosition=center;verticalLabelPosition=bottom;align=center;verticalAlign=top;whiteSpace=wrap;size=15;html=1;" parent="dQ3IUtjXQcdoY3WB8gmI-2" vertex="1">
          <mxGeometry x="1390" y="10" width="40" height="60" as="geometry" />
        </mxCell>
        <mxCell id="GKFgGf4gHCo7Agr6WiY--5" value="" style="edgeStyle=elbowEdgeStyle;fontSize=12;html=1;endFill=0;startFill=0;endSize=6;startSize=6;dashed=1;dashPattern=1 4;endArrow=openThin;startArrow=none;rounded=0;" parent="dQ3IUtjXQcdoY3WB8gmI-2" source="dQ3IUtjXQcdoY3WB8gmI-76" target="GKFgGf4gHCo7Agr6WiY--3" edge="1">
          <mxGeometry width="160" relative="1" as="geometry">
            <mxPoint x="930" y="60" as="sourcePoint" />
            <mxPoint x="970" y="60" as="targetPoint" />
            <Array as="points">
              <mxPoint x="990" y="50" />
            </Array>
          </mxGeometry>
        </mxCell>
        <mxCell id="GKFgGf4gHCo7Agr6WiY--6" value="" style="edgeStyle=elbowEdgeStyle;fontSize=12;html=1;endFill=0;startFill=0;endSize=6;startSize=6;dashed=1;dashPattern=1 4;endArrow=openThin;startArrow=none;rounded=0;entryX=0;entryY=0;entryDx=40;entryDy=37.5;entryPerimeter=0;exitX=0.5;exitY=0;exitDx=0;exitDy=0;exitPerimeter=0;" parent="dQ3IUtjXQcdoY3WB8gmI-2" source="dQ3IUtjXQcdoY3WB8gmI-96" target="GKFgGf4gHCo7Agr6WiY--3" edge="1">
          <mxGeometry width="160" relative="1" as="geometry">
            <mxPoint x="1610" y="70" as="sourcePoint" />
            <mxPoint x="1770" y="70" as="targetPoint" />
            <Array as="points">
              <mxPoint x="1940" y="80" />
            </Array>
          </mxGeometry>
        </mxCell>
        <mxCell id="GKFgGf4gHCo7Agr6WiY--11" value="Product delivery schedule" style="shape=mxgraph.bpmn.data;labelPosition=center;verticalLabelPosition=bottom;align=center;verticalAlign=top;whiteSpace=wrap;size=15;html=1;" parent="dQ3IUtjXQcdoY3WB8gmI-2" vertex="1">
          <mxGeometry x="1030" y="180" width="40" height="60" as="geometry" />
        </mxCell>
        <mxCell id="GKFgGf4gHCo7Agr6WiY--12" value="" style="edgeStyle=elbowEdgeStyle;fontSize=12;html=1;endFill=0;startFill=0;endSize=6;startSize=6;dashed=1;dashPattern=1 4;endArrow=openThin;startArrow=none;rounded=0;" parent="dQ3IUtjXQcdoY3WB8gmI-2" source="dQ3IUtjXQcdoY3WB8gmI-78" target="GKFgGf4gHCo7Agr6WiY--11" edge="1">
          <mxGeometry width="160" relative="1" as="geometry">
            <mxPoint x="1110" y="180" as="sourcePoint" />
            <mxPoint x="1270" y="80" as="targetPoint" />
            <Array as="points">
              <mxPoint x="1110" y="210" />
              <mxPoint x="1150" y="85" />
            </Array>
          </mxGeometry>
        </mxCell>
        <mxCell id="dQ3IUtjXQcdoY3WB8gmI-94" value="Products are delivered to the warehouse" style="points=[[0.25,0,0],[0.5,0,0],[0.75,0,0],[1,0.25,0],[1,0.5,0],[1,0.75,0],[0.75,1,0],[0.5,1,0],[0.25,1,0],[0,0.75,0],[0,0.5,0],[0,0.25,0]];shape=mxgraph.bpmn.task;whiteSpace=wrap;rectStyle=rounded;size=10;taskMarker=abstract;" parent="dQ3IUtjXQcdoY3WB8gmI-2" vertex="1">
          <mxGeometry x="1710" y="100" width="120" height="80" as="geometry" />
        </mxCell>
        <mxCell id="dQ3IUtjXQcdoY3WB8gmI-95" value="" style="edgeStyle=orthogonalEdgeStyle;rounded=0;orthogonalLoop=1;jettySize=auto;html=1;" parent="dQ3IUtjXQcdoY3WB8gmI-2" source="dQ3IUtjXQcdoY3WB8gmI-92" target="dQ3IUtjXQcdoY3WB8gmI-94" edge="1">
          <mxGeometry relative="1" as="geometry" />
        </mxCell>
        <mxCell id="dQ3IUtjXQcdoY3WB8gmI-97" value="" style="edgeStyle=orthogonalEdgeStyle;rounded=0;orthogonalLoop=1;jettySize=auto;html=1;" parent="dQ3IUtjXQcdoY3WB8gmI-2" source="dQ3IUtjXQcdoY3WB8gmI-94" target="dQ3IUtjXQcdoY3WB8gmI-96" edge="1">
          <mxGeometry relative="1" as="geometry" />
        </mxCell>
        <mxCell id="GKFgGf4gHCo7Agr6WiY--18" value="Supplier" style="swimlane;html=1;startSize=20;horizontal=0;" parent="dQ3IUtjXQcdoY3WB8gmI-1" vertex="1">
          <mxGeometry x="20" y="330" width="2120" height="140" as="geometry" />
        </mxCell>
        <mxCell id="GKFgGf4gHCo7Agr6WiY--19" value="Sends a delivery schedule" style="points=[[0.25,0,0],[0.5,0,0],[0.75,0,0],[1,0.25,0],[1,0.5,0],[1,0.75,0],[0.75,1,0],[0.5,1,0],[0.25,1,0],[0,0.75,0],[0,0.5,0],[0,0.25,0]];shape=mxgraph.bpmn.task;whiteSpace=wrap;rectStyle=rounded;size=10;taskMarker=abstract;" parent="GKFgGf4gHCo7Agr6WiY--18" vertex="1">
          <mxGeometry x="750" y="30" width="120" height="80" as="geometry" />
        </mxCell>
        <mxCell id="dQ3IUtjXQcdoY3WB8gmI-3" value="Warehouse" style="swimlane;html=1;startSize=20;horizontal=0;" parent="dQ3IUtjXQcdoY3WB8gmI-1" vertex="1">
          <mxGeometry x="20" y="470" width="2120" height="140" as="geometry" />
        </mxCell>
        <mxCell id="dQ3IUtjXQcdoY3WB8gmI-62" value="Check if parts are in stock" style="points=[[0.25,0,0],[0.5,0,0],[0.75,0,0],[1,0.25,0],[1,0.5,0],[1,0.75,0],[0.75,1,0],[0.5,1,0],[0.25,1,0],[0,0.75,0],[0,0.5,0],[0,0.25,0]];shape=mxgraph.bpmn.task;whiteSpace=wrap;rectStyle=rounded;size=10;taskMarker=abstract;" parent="dQ3IUtjXQcdoY3WB8gmI-3" vertex="1">
          <mxGeometry x="140" y="30" width="120" height="80" as="geometry" />
        </mxCell>
        <mxCell id="dQ3IUtjXQcdoY3WB8gmI-60" value="parts are in stock?&amp;nbsp;" style="points=[[0.25,0.25,0],[0.5,0,0],[0.75,0.25,0],[1,0.5,0],[0.75,0.75,0],[0.5,1,0],[0.25,0.75,0],[0,0.5,0]];shape=mxgraph.bpmn.gateway2;html=1;verticalLabelPosition=bottom;labelBackgroundColor=#ffffff;verticalAlign=top;align=center;perimeter=rhombusPerimeter;outlineConnect=0;outline=none;symbol=none;gwType=exclusive;" parent="dQ3IUtjXQcdoY3WB8gmI-3" vertex="1">
          <mxGeometry x="355" y="45" width="50" height="50" as="geometry" />
        </mxCell>
        <mxCell id="dQ3IUtjXQcdoY3WB8gmI-64" style="edgeStyle=orthogonalEdgeStyle;rounded=0;orthogonalLoop=1;jettySize=auto;html=1;" parent="dQ3IUtjXQcdoY3WB8gmI-3" source="dQ3IUtjXQcdoY3WB8gmI-62" target="dQ3IUtjXQcdoY3WB8gmI-60" edge="1">
          <mxGeometry relative="1" as="geometry" />
        </mxCell>
        <mxCell id="dQ3IUtjXQcdoY3WB8gmI-89" value="" style="points=[[0.25,0.25,0],[0.5,0,0],[0.75,0.25,0],[1,0.5,0],[0.75,0.75,0],[0.5,1,0],[0.25,0.75,0],[0,0.5,0]];shape=mxgraph.bpmn.gateway2;html=1;verticalLabelPosition=bottom;labelBackgroundColor=#ffffff;verticalAlign=top;align=center;perimeter=rhombusPerimeter;outlineConnect=0;outline=none;symbol=none;gwType=exclusive;" parent="dQ3IUtjXQcdoY3WB8gmI-3" vertex="1">
          <mxGeometry x="1440" y="45" width="50" height="50" as="geometry" />
        </mxCell>
        <mxCell id="dQ3IUtjXQcdoY3WB8gmI-87" value=" Parts from the parts supplier are received" style="points=[[0.25,0,0],[0.5,0,0],[0.75,0,0],[1,0.25,0],[1,0.5,0],[1,0.75,0],[0.75,1,0],[0.5,1,0],[0.25,1,0],[0,0.75,0],[0,0.5,0],[0,0.25,0]];shape=mxgraph.bpmn.task;whiteSpace=wrap;rectStyle=rounded;size=10;taskMarker=abstract;" parent="dQ3IUtjXQcdoY3WB8gmI-3" vertex="1">
          <mxGeometry x="1090" y="30" width="120" height="80" as="geometry" />
        </mxCell>
        <mxCell id="dQ3IUtjXQcdoY3WB8gmI-90" style="edgeStyle=orthogonalEdgeStyle;rounded=0;orthogonalLoop=1;jettySize=auto;html=1;exitX=1;exitY=0.5;exitDx=0;exitDy=0;exitPerimeter=0;" parent="dQ3IUtjXQcdoY3WB8gmI-3" source="dQ3IUtjXQcdoY3WB8gmI-87" target="dQ3IUtjXQcdoY3WB8gmI-89" edge="1">
          <mxGeometry relative="1" as="geometry">
            <mxPoint x="1310" y="90" as="targetPoint" />
            <Array as="points">
              <mxPoint x="1290" y="70" />
              <mxPoint x="1290" y="70" />
            </Array>
          </mxGeometry>
        </mxCell>
        <mxCell id="dQ3IUtjXQcdoY3WB8gmI-75" value="" style="edgeStyle=orthogonalEdgeStyle;rounded=0;orthogonalLoop=1;jettySize=auto;html=1;" parent="dQ3IUtjXQcdoY3WB8gmI-1" source="dQ3IUtjXQcdoY3WB8gmI-70" target="GKFgGf4gHCo7Agr6WiY--19" edge="1">
          <mxGeometry relative="1" as="geometry">
            <mxPoint x="830" y="360" as="targetPoint" />
          </mxGeometry>
        </mxCell>
        <mxCell id="GKFgGf4gHCo7Agr6WiY--8" style="edgeStyle=orthogonalEdgeStyle;rounded=0;orthogonalLoop=1;jettySize=auto;html=1;exitX=1;exitY=0.5;exitDx=0;exitDy=0;exitPerimeter=0;" parent="dQ3IUtjXQcdoY3WB8gmI-1" source="GKFgGf4gHCo7Agr6WiY--19" target="dQ3IUtjXQcdoY3WB8gmI-76" edge="1">
          <mxGeometry relative="1" as="geometry" />
        </mxCell>
        <mxCell id="dQ3IUtjXQcdoY3WB8gmI-63" value="" style="edgeStyle=orthogonalEdgeStyle;rounded=0;orthogonalLoop=1;jettySize=auto;html=1;" parent="dQ3IUtjXQcdoY3WB8gmI-1" source="dQ3IUtjXQcdoY3WB8gmI-56" target="dQ3IUtjXQcdoY3WB8gmI-62" edge="1">
          <mxGeometry relative="1" as="geometry" />
        </mxCell>
        <mxCell id="dQ3IUtjXQcdoY3WB8gmI-65" style="edgeStyle=orthogonalEdgeStyle;rounded=0;orthogonalLoop=1;jettySize=auto;html=1;" parent="dQ3IUtjXQcdoY3WB8gmI-1" source="dQ3IUtjXQcdoY3WB8gmI-60" target="dQ3IUtjXQcdoY3WB8gmI-69" edge="1">
          <mxGeometry relative="1" as="geometry">
            <mxPoint x="460" y="190" as="targetPoint" />
            <Array as="points" />
          </mxGeometry>
        </mxCell>
        <mxCell id="dQ3IUtjXQcdoY3WB8gmI-68" value="no" style="edgeLabel;html=1;align=center;verticalAlign=middle;resizable=0;points=[];" parent="dQ3IUtjXQcdoY3WB8gmI-65" vertex="1" connectable="0">
          <mxGeometry x="0.3167" relative="1" as="geometry">
            <mxPoint x="16" as="offset" />
          </mxGeometry>
        </mxCell>
        <mxCell id="GKFgGf4gHCo7Agr6WiY--9" style="edgeStyle=orthogonalEdgeStyle;rounded=0;orthogonalLoop=1;jettySize=auto;html=1;exitX=0.5;exitY=0;exitDx=0;exitDy=0;exitPerimeter=0;" parent="dQ3IUtjXQcdoY3WB8gmI-1" source="dQ3IUtjXQcdoY3WB8gmI-60" target="dQ3IUtjXQcdoY3WB8gmI-76" edge="1">
          <mxGeometry relative="1" as="geometry">
            <Array as="points">
              <mxPoint x="400" y="85" />
            </Array>
          </mxGeometry>
        </mxCell>
        <mxCell id="GKFgGf4gHCo7Agr6WiY--10" value="yes" style="edgeLabel;html=1;align=center;verticalAlign=middle;resizable=0;points=[];" parent="GKFgGf4gHCo7Agr6WiY--9" vertex="1" connectable="0">
          <mxGeometry x="-0.1517" y="-4" relative="1" as="geometry">
            <mxPoint as="offset" />
          </mxGeometry>
        </mxCell>
        <mxCell id="dQ3IUtjXQcdoY3WB8gmI-86" value="" style="edgeStyle=orthogonalEdgeStyle;rounded=0;orthogonalLoop=1;jettySize=auto;html=1;" parent="dQ3IUtjXQcdoY3WB8gmI-1" source="dQ3IUtjXQcdoY3WB8gmI-78" target="dQ3IUtjXQcdoY3WB8gmI-89" edge="1">
          <mxGeometry relative="1" as="geometry">
            <mxPoint x="1310" y="130" as="targetPoint" />
          </mxGeometry>
        </mxCell>
        <mxCell id="dQ3IUtjXQcdoY3WB8gmI-93" style="edgeStyle=orthogonalEdgeStyle;rounded=0;orthogonalLoop=1;jettySize=auto;html=1;" parent="dQ3IUtjXQcdoY3WB8gmI-1" source="dQ3IUtjXQcdoY3WB8gmI-89" target="dQ3IUtjXQcdoY3WB8gmI-92" edge="1">
          <mxGeometry relative="1" as="geometry" />
        </mxCell>
        <mxCell id="QYQcrI37jZFEruPv1kGK-1" style="edgeStyle=orthogonalEdgeStyle;rounded=0;orthogonalLoop=1;jettySize=auto;html=1;" parent="dQ3IUtjXQcdoY3WB8gmI-1" source="dQ3IUtjXQcdoY3WB8gmI-78" target="dQ3IUtjXQcdoY3WB8gmI-87" edge="1">
          <mxGeometry relative="1" as="geometry">
            <Array as="points">
              <mxPoint x="1170" y="250" />
            </Array>
          </mxGeometry>
        </mxCell>
        <mxCell id="dQ3IUtjXQcdoY3WB8gmI-101" value="Manufacturing Company – Assemble Ordered Products(BPMN Exercise 2)" style="text;strokeColor=none;fillColor=none;html=1;fontSize=24;fontStyle=1;verticalAlign=middle;align=center;" parent="1" vertex="1">
          <mxGeometry x="470" y="80" width="100" height="40" as="geometry" />
        </mxCell>
      </root>
    </mxGraphModel>
  </diagram>
</mxfile>
